<svg id="Layer_1" data-name="Layer 1" xmlns="http://www.w3.org/2000/svg" viewBox="0 0 122.88 122.88"><defs><style>.cls-1{fill:#1769ff;}.cls-1,.cls-2{fill-rule:evenodd;}.cls-2{fill:#fff;}</style></defs><title>behance-square-color</title><path class="cls-1" d="M25.2,0H97.68a25.27,25.27,0,0,1,25.2,25.2V97.68a25.27,25.27,0,0,1-25.2,25.2H25.2A25.27,25.27,0,0,1,0,97.68V25.2A25.27,25.27,0,0,1,25.2,0Z"/><path class="cls-2" d="M75.25,74.38a8.23,8.23,0,0,0,9.49.54,5.26,5.26,0,0,0,2.17-2.62h7.15c-1.15,3.56-2.89,6.09-5.27,7.62a15.42,15.42,0,0,1-8.56,2.31,17.09,17.09,0,0,1-6.31-1.12,13.36,13.36,0,0,1-4.77-3.18,14.64,14.64,0,0,1-3-4.92,18.24,18.24,0,0,1-1.06-6.31,17.34,17.34,0,0,1,1.09-6.18,14.43,14.43,0,0,1,3.1-5,14.76,14.76,0,0,1,4.8-3.29,15.37,15.37,0,0,1,6.17-1.21,13.9,13.9,0,0,1,6.57,1.47,13.3,13.3,0,0,1,4.62,3.91A15.9,15.9,0,0,1,94,62.07a21.12,21.12,0,0,1,.57,6.59H73.24a8.22,8.22,0,0,0,2,5.71ZM47.49,40.64a25,25,0,0,1,5.33.52,11.45,11.45,0,0,1,4.12,1.69A8,8,0,0,1,59.62,46a11,11,0,0,1,.93,4.79,9,9,0,0,1-1.4,5.15A10.29,10.29,0,0,1,55,59.28a9.78,9.78,0,0,1,5.62,3.8A12.62,12.62,0,0,1,61.25,75,10.43,10.43,0,0,1,58,78.69a14.27,14.27,0,0,1-4.64,2.11,21.08,21.08,0,0,1-5.34.69H28.24V40.65H47.49Zm-.67,33.88a11.3,11.3,0,0,0,2.51-.26,5.8,5.8,0,0,0,2.11-.87,4.3,4.3,0,0,0,1.47-1.63,5.69,5.69,0,0,0,.53-2.64c0-2.1-.6-3.61-1.78-4.52A7.52,7.52,0,0,0,47,63.27H37.22V74.51h9.6v0Zm-.5-17.39a6.47,6.47,0,0,0,4-1.14,4.28,4.28,0,0,0,1.53-3.71,4.87,4.87,0,0,0-.51-2.35,3.72,3.72,0,0,0-1.39-1.42,5.42,5.42,0,0,0-2-.72,12.49,12.49,0,0,0-2.31-.2h-8.4v9.54h9.1ZM71.57,43.94H88.13v4H71.57v-4Zm13,14.91A6.11,6.11,0,0,0,80,57.2a7,7,0,0,0-3.23.66,6.39,6.39,0,0,0-2.06,1.64,5.68,5.68,0,0,0-1.08,2.08,9.26,9.26,0,0,0-.38,2H86.46a7.91,7.91,0,0,0-1.88-4.68Z"/></svg>