<svg id="Layer_1" data-name="Layer 1" xmlns="http://www.w3.org/2000/svg" viewBox="0 0 122.88 122.88"><defs><style>.cls-1{fill:#ea4c89;}.cls-1,.cls-2{fill-rule:evenodd;}.cls-2{fill:#fff;}</style></defs><title>dribbble-square-color</title><path class="cls-1" d="M25.2,0H97.68a25.27,25.27,0,0,1,25.2,25.2V97.68a25.27,25.27,0,0,1-25.2,25.2H25.2A25.27,25.27,0,0,1,0,97.68V25.2A25.27,25.27,0,0,1,25.2,0Z"/><path class="cls-2" d="M61.44,97.79A36.35,36.35,0,1,1,97.79,61.44,36.38,36.38,0,0,1,61.44,97.79Zm24-55.93c-.66.88-5.87,7.56-17.34,12.24.72,1.48,1.42,3,2.06,4.51.23.54.45,1.06.67,1.6a73.28,73.28,0,0,1,21.62,1,30.92,30.92,0,0,0-7-19.33Zm6.61,24.55a45.46,45.46,0,0,0-19.33-1.32,135.32,135.32,0,0,1,6,22.13,31,31,0,0,0,13.3-20.81ZM73.57,90.06A129.72,129.72,0,0,0,67,66.52l-.2.08C49.23,72.7,42.94,84.84,42.39,86a31,31,0,0,0,31.18,4.09Zm-35.2-7.82C39.08,81,47.6,66.93,63.6,61.75c.4-.12.81-.25,1.22-.36-.78-1.77-1.63-3.54-2.51-5.27a115.42,115.42,0,0,1-31.9,4.43c0,.32,0,.63,0,1a30.92,30.92,0,0,0,8,20.74ZM31.06,55.12a116.9,116.9,0,0,0,28.71-3.77,192.76,192.76,0,0,0-11.52-18A31.14,31.14,0,0,0,31.06,55.12ZM54.17,31.3A166.07,166.07,0,0,1,65.76,49.47C76.8,45.34,81.47,39.05,82,38.26a30.91,30.91,0,0,0-20.59-7.83,32.8,32.8,0,0,0-7.27.87Z"/></svg>