<svg width="20" height="20" viewBox="0 0 20 20" fill="none" xmlns="http://www.w3.org/2000/svg">
<path d="M14.9849 15.6042C14.4026 14.8332 13.6493 14.208 12.7842 13.7778C11.9192 13.3476 10.9661 13.1241 9.99993 13.125C9.0338 13.1241 8.08067 13.3476 7.21561 13.7778C6.35056 14.208 5.59721 14.8332 5.01493 15.6042M14.9849 15.6042C16.1212 14.5935 16.9225 13.2613 17.2842 11.7842C17.646 10.3072 17.5501 8.75507 17.0095 7.33373C16.4688 5.91239 15.5089 4.68898 14.2569 3.82575C13.005 2.96251 11.5202 2.50024 9.99951 2.50024C8.47881 2.50024 6.99404 2.96251 5.7421 3.82575C4.49016 4.68898 3.5302 5.91239 2.98954 7.33373C2.44888 8.75507 2.35306 10.3072 2.71478 11.7842C3.0765 13.2613 3.87868 14.5935 5.01493 15.6042M14.9849 15.6042C13.6133 16.8276 11.838 17.5026 9.99993 17.5C8.16162 17.5028 6.38679 16.8278 5.01493 15.6042M12.4999 8.125C12.4999 8.78804 12.2365 9.42392 11.7677 9.89277C11.2989 10.3616 10.663 10.625 9.99993 10.625C9.33689 10.625 8.701 10.3616 8.23216 9.89277C7.76332 9.42392 7.49993 8.78804 7.49993 8.125C7.49993 7.46196 7.76332 6.82607 8.23216 6.35723C8.701 5.88839 9.33689 5.625 9.99993 5.625C10.663 5.625 11.2989 5.88839 11.7677 6.35723C12.2365 6.82607 12.4999 7.46196 12.4999 8.125Z" stroke="#2C2C2C" stroke-linecap="round" stroke-linejoin="round"/>
</svg>
