<svg width="20" height="20" viewBox="0 0 20 20" fill="none" xmlns="http://www.w3.org/2000/svg">
<g clip-path="url(#clip0_213_305)">
<path d="M2.5 12.5C2.5 12.279 2.5878 12.067 2.74408 11.9108C2.90036 11.7545 3.11232 11.6667 3.33333 11.6667H5C5.22101 11.6667 5.43298 11.7545 5.58926 11.9108C5.74554 12.067 5.83333 12.279 5.83333 12.5V14.1667C5.83333 14.3877 5.74554 14.5997 5.58926 14.7559C5.43298 14.9122 5.22101 15 5 15H3.33333C3.11232 15 2.90036 14.9122 2.74408 14.7559C2.5878 14.5997 2.5 14.3877 2.5 14.1667V12.5Z" stroke="black" stroke-width="0.8" stroke-linecap="round" stroke-linejoin="round"/>
<path d="M14.1667 12.5C14.1667 12.279 14.2545 12.067 14.4108 11.9108C14.567 11.7545 14.779 11.6667 15 11.6667H16.6667C16.8877 11.6667 17.0997 11.7545 17.2559 11.9108C17.4122 12.067 17.5 12.279 17.5 12.5V14.1667C17.5 14.3877 17.4122 14.5997 17.2559 14.7559C17.0997 14.9122 16.8877 15 16.6667 15H15C14.779 15 14.567 14.9122 14.4108 14.7559C14.2545 14.5997 14.1667 14.3877 14.1667 14.1667V12.5Z" stroke="black" stroke-width="0.8" stroke-linecap="round" stroke-linejoin="round"/>
<path d="M8.33331 5.83333C8.33331 5.61232 8.42111 5.40036 8.57739 5.24408C8.73367 5.0878 8.94563 5 9.16665 5H10.8333C11.0543 5 11.2663 5.0878 11.4226 5.24408C11.5788 5.40036 11.6666 5.61232 11.6666 5.83333V7.5C11.6666 7.72101 11.5788 7.93298 11.4226 8.08926C11.2663 8.24554 11.0543 8.33333 10.8333 8.33333H9.16665C8.94563 8.33333 8.73367 8.24554 8.57739 8.08926C8.42111 7.93298 8.33331 7.72101 8.33331 7.5V5.83333Z" fill="black" stroke="black" stroke-width="0.8" stroke-linecap="round" stroke-linejoin="round"/>
<path d="M8.33335 7.08331C7.22481 7.26788 6.21076 7.82051 5.45481 8.65206C4.69885 9.48361 4.24508 10.5456 4.16669 11.6666" stroke="black" stroke-width="0.8" stroke-linecap="round" stroke-linejoin="round"/>
<path d="M11.6667 7.08331C12.7752 7.26788 13.7893 7.82051 14.5452 8.65206C15.3012 9.48361 15.755 10.5456 15.8334 11.6666" stroke="black" stroke-width="0.8" stroke-linecap="round" stroke-linejoin="round"/>
<path d="M8.33331 6.66669H3.33331" stroke="black" stroke-width="0.8" stroke-linecap="round" stroke-linejoin="round"/>
<path d="M16.6667 6.66669H11.6667" stroke="black" stroke-width="0.8" stroke-linecap="round" stroke-linejoin="round"/>
<path d="M1.66669 6.66665C1.66669 6.88766 1.75448 7.09962 1.91076 7.2559C2.06704 7.41218 2.27901 7.49998 2.50002 7.49998C2.72103 7.49998 2.933 7.41218 3.08928 7.2559C3.24556 7.09962 3.33335 6.88766 3.33335 6.66665C3.33335 6.44563 3.24556 6.23367 3.08928 6.07739C2.933 5.92111 2.72103 5.83331 2.50002 5.83331C2.27901 5.83331 2.06704 5.92111 1.91076 6.07739C1.75448 6.23367 1.66669 6.44563 1.66669 6.66665Z" stroke="black" stroke-width="0.8" stroke-linecap="round" stroke-linejoin="round"/>
<path d="M16.6667 6.66665C16.6667 6.88766 16.7545 7.09962 16.9108 7.2559C17.067 7.41218 17.279 7.49998 17.5 7.49998C17.721 7.49998 17.933 7.41218 18.0893 7.2559C18.2456 7.09962 18.3334 6.88766 18.3334 6.66665C18.3334 6.44563 18.2456 6.23367 18.0893 6.07739C17.933 5.92111 17.721 5.83331 17.5 5.83331C17.279 5.83331 17.067 5.92111 16.9108 6.07739C16.7545 6.23367 16.6667 6.44563 16.6667 6.66665Z" stroke="black" stroke-width="0.8" stroke-linecap="round" stroke-linejoin="round"/>
</g>
<defs>
<clipPath id="clip0_213_305">
<rect width="20" height="20" fill="white"/>
</clipPath>
</defs>
</svg>
