<svg width="16" height="16" viewBox="0 0 16 16" fill="none" xmlns="http://www.w3.org/2000/svg">
<path d="M14.5 4.49999C14.5 4.91556 14.4137 5.3266 14.2466 5.70706C14.0794 6.08752 13.835 6.42911 13.5289 6.71015C13.2228 6.9912 12.8616 7.20558 12.4683 7.33971C12.0749 7.47384 11.658 7.52479 11.244 7.48933C10.5267 7.42866 9.73466 7.53666 9.27733 8.09199L4.50933 13.8813C4.35892 14.0647 4.17179 14.2145 3.95999 14.3211C3.74819 14.4278 3.5164 14.4889 3.27955 14.5006C3.0427 14.5122 2.80603 14.4742 2.58477 14.3888C2.36352 14.3035 2.16259 14.1728 1.9949 14.0051C1.82722 13.8374 1.69651 13.6365 1.61117 13.4152C1.52584 13.194 1.48777 12.9573 1.49943 12.7204C1.51109 12.4836 1.57221 12.2518 1.67886 12.04C1.78551 11.8282 1.93532 11.6411 2.11866 11.4907L7.90799 6.72266C8.46333 6.26533 8.57133 5.47333 8.51066 4.75599C8.4659 4.23477 8.55822 3.71091 8.77845 3.23639C8.99868 2.76187 9.33917 2.35318 9.76612 2.05089C10.1931 1.7486 10.6917 1.56321 11.2124 1.51311C11.7331 1.46302 12.2579 1.54997 12.7347 1.76533L10.5507 3.94933C10.6352 4.31472 10.8205 4.64905 11.0857 4.91424C11.3509 5.17944 11.6853 5.36483 12.0507 5.44933L14.2347 3.26533C14.4053 3.64199 14.5 4.05999 14.5 4.49999Z" stroke="black" stroke-linecap="round" stroke-linejoin="round"/>
<path d="M3.24469 12.75H3.25002V12.7549H3.24469V12.75Z" stroke="black" stroke-width="1.5" stroke-linecap="round" stroke-linejoin="round"/>
</svg>
