<svg width="20" height="20" viewBox="0 0 20 20" fill="none" xmlns="http://www.w3.org/2000/svg">
<g clip-path="url(#clip0_213_316)">
<path d="M13.3333 8.35619C15.2083 8.56346 16.6666 10.1531 16.6666 12.0833V19.5833C16.6666 19.8134 16.4801 20 16.25 20C16.0199 20 15.8333 19.8134 15.8333 19.5833V12.0833C15.8333 10.6139 14.7468 9.39836 13.3333 9.19618L13.3333 14.1666C13.3333 15.0871 12.5871 15.8333 11.6666 15.8333C10.9225 15.8333 10.2651 15.6336 9.70697 15.2338C9.49471 15.0817 9.24016 15 8.97873 15C8.76442 15 8.59227 15.124 8.53096 15.308C8.4385 15.5854 8.49398 15.8556 8.66576 16.0489L11.5614 19.3065C11.7143 19.4785 11.6988 19.7418 11.5268 19.8947C11.3548 20.0476 11.0914 20.0321 10.9386 19.8601L8.83325 17.4916C8.80634 17.4971 8.7785 17.5 8.74998 17.5H5.41665C4.26605 17.5 3.33331 16.5672 3.33331 15.4166V2.08327C3.33331 0.932679 4.26605 -6.05373e-05 5.41665 -6.05373e-05L11.25 -6.10352e-05C12.4006 -6.06914e-05 13.3333 0.93268 13.3333 2.08327L13.3333 8.35619ZM8.04291 16.6025C7.67311 16.1865 7.55367 15.6046 7.7297 15.0765C7.91513 14.5202 8.40572 14.1666 8.95865 14.1666C9.41423 14.1667 9.83848 14.3029 10.1922 14.5563C10.6049 14.852 11.0922 15 11.6666 15C12.1269 15 12.5 14.6269 12.5 14.1666L12.5 2.08327C12.5 1.39292 11.9403 0.833272 11.25 0.833272L5.41665 0.833273C4.72629 0.833273 4.16665 1.39292 4.16665 2.08327V15.4166C4.16665 16.107 4.72629 16.6666 5.41665 16.6666H8.09991L8.04291 16.6025ZM7.08331 2.49997C6.85319 2.49997 6.66665 2.31342 6.66665 2.0833C6.66665 1.85319 6.85319 1.66664 7.08331 1.66664H9.58331C9.81343 1.66664 9.99998 1.85319 9.99998 2.0833C9.99998 2.31342 9.81343 2.49997 9.58331 2.49997H7.08331ZM9.58331 5.8333C10.7983 5.8333 11.6666 6.55689 11.6666 7.91664C11.6666 9.21619 10.601 10.434 8.54004 11.6117C8.41194 11.6849 8.25469 11.6849 8.12659 11.6117C6.06559 10.434 4.99998 9.21619 4.99998 7.91664C4.99998 6.55689 5.86829 5.8333 7.08331 5.8333C7.58396 5.8333 8.0062 6.01336 8.33331 6.35621C8.66043 6.01336 9.08267 5.8333 9.58331 5.8333ZM10.8333 7.91664C10.8333 7.05416 11.9043 7.91664 11.1193 7.91664C10.7274 7.91664 10.625 11.25 9.06151 10.3007C8.68883 12.8329 6.40354 10.3071 6.24999 10C6.04046 9.58095 7.89187 9.37502 7.49999 9.37502C6.71502 9.37502 8.95865 7.69964 8.95865 8.56212C8.95865 9.4493 6.64584 9.76655 8.33331 10.7679C10.0208 9.76655 10.8333 8.80382 10.8333 7.91664Z" fill="black"/>
</g>
<defs>
<clipPath id="clip0_213_316">
<rect width="20" height="20" fill="white"/>
</clipPath>
</defs>
</svg>
